<?xml version="1.0" encoding="utf-8"?>
<!-- Generator: Adobe Illustrator 16.0.0, SVG Export Plug-In . SVG Version: 6.00 Build 0)  -->
<!DOCTYPE svg PUBLIC "-//W3C//DTD SVG 1.1 Tiny//EN" "http://www.w3.org/Graphics/SVG/1.1/DTD/svg11-tiny.dtd">
<svg version="1.1" baseProfile="tiny" id="Layer_1" xmlns="http://www.w3.org/2000/svg" xmlns:xlink="http://www.w3.org/1999/xlink"
	 x="0px" y="0px" width="672.201px" height="374.455px" viewBox="0 0 672.201 374.455" xml:space="preserve">
<g>
	<path fill="#CCCCCC" d="M276.805,214.522v91.501H154.549c-46.903,0-64.588-12.304-64.588-45.365
		c0-19.992,9.227-35.369,23.836-41.521c9.996-3.845,17.685-4.613,40.752-4.613h122.256V214.522z M146.86,146.091
		c-44.596,0-73.045,3.845-91.499,13.071C21.529,176.848,0,216.062,0,262.194c0,39.216,16.238,72.146,43.827,91.501
		c23.928,16.785,44.596,20.76,118.411,20.76h509.963v-68.432h-46.529V125.846H555.19v180.177h-76.086V125.846h-70.017v180.177
		h-76.086V68.432h282.87c25.385,0,43.156,3.808,56.33,12.475V0h-336.96c-38.197,0-53.055,0-131.482,0H103.052v68.432h92.249
		c43.058,0,59.781,5.514,70.739,21.529c9.035,13.204,10.765,23.836,10.765,56.13H146.86L146.86,146.091z"/>
</g>
</svg>
