<?xml version="1.0" encoding="utf-8"?>
<!-- Generator: Adobe Illustrator 16.0.0, SVG Export Plug-In . SVG Version: 6.00 Build 0)  -->
<!DOCTYPE svg PUBLIC "-//W3C//DTD SVG 1.1 Tiny//EN" "http://www.w3.org/Graphics/SVG/1.1/DTD/svg11-tiny.dtd">
<svg version="1.1" baseProfile="tiny" id="Layer_1" xmlns="http://www.w3.org/2000/svg" xmlns:xlink="http://www.w3.org/1999/xlink"
	 x="0px" y="0px" width="60.496px" height="58.149px" viewBox="0 0 60.496 58.149" xml:space="preserve">
<path fill="#E1E1E1" d="M60.496,34.029h-2.347V17.341h-1.825v16.688h-2.347v3.607h-1.695v-3.607h-2.347V22.034H48.11v11.995h-2.347
	v3.607h-6.259v-3.607h-4.861L33.507,6.742l-0.003-0.071L32.17,0h-3.844l-1.334,6.671l-1.14,27.358h-4.861v3.607h-6.258v-3.607
	h-2.347V22.034h-1.826v11.995H8.214v3.607H6.52v-3.607H4.172V17.341H2.347v16.688H0v16.993h2.347v0.935h1.825v-0.935H6.52v-2.12
	l14.472,2.079v1.301h1.304v5.867h5.346v-3.661h5.215v3.661h5.346v-5.867h1.304v-1.301l14.473-2.079v2.12h2.347v0.935h1.825v-0.935
	h2.347V34.029z M47.589,35.854h2.868v1.695h-2.868V35.854z M10.039,35.854h2.869v1.695h-2.869V35.854z M37.68,37.637h-0.043v12.82
	h-2.955V35.854h2.998V37.637z M27.641,36.376v-1.415l0.305-7.31h4.605l0.305,7.31v1.415H27.641z M31.72,7.692l0.756,18.134h-4.454
	l0.755-18.134H31.72z M30.674,1.825l0.808,4.042h-2.467l0.809-4.042H30.674z M22.816,35.854h2.999v14.603H22.86v-12.82h-0.044
	V35.854z M4.693,49.197H1.825V35.854h2.868V49.197z M14.733,48.238v-5.082h-1.825v4.82L6.52,47.059v-7.597h14.472v9.675
	L14.733,48.238z M25.815,56.324H24.12v-4.042h1.695V56.324z M27.641,52.282v-1.825V38.202h1.695v14.461h-1.695V52.282z
	 M31.161,52.663V38.202h1.694v12.255v1.825v0.381H31.161z M36.376,56.324h-1.694v-1.836v-2.206h1.694V56.324z M47.458,47.995v-4.839
	h-1.825v5.101l-6.128,0.88v-9.675h14.473v7.597L47.458,47.995z M58.671,49.197h-2.868V35.854h2.868V49.197z"/>
</svg>
